<svg aria-hidden="true" style="position: absolute; width: 0; height: 0; overflow: hidden;" version="1.1" xmlns="http://www.w3.org/2000/svg" xmlns:xlink="http://www.w3.org/1999/xlink">
<defs>
<symbol id="icon-jb_phpstorm-1" viewBox="0 0 32 32">
<path fill="#000" style="fill: var(--color1, #000)" d="M18.103 6.949l-1.509-4.572-11.155-2.377-5.44 6.171 17.006 8.685 1.098-7.909z"></path>
<path fill="#000" style="fill: var(--color1, #000)" d="M12.8 18.925l-0.32-9.508-12.48-3.245 3.063 18.331 9.737-0.091v-5.486z"></path>
<path fill="#000" style="fill: var(--color1, #000)" d="M10.103 18.743l0.594-7.543 9.052-9.28 8.091 1.463 4.16 10.377-4.343 4.297-7.085-1.142-4.389 4.617-6.080-2.788z"></path>
<path fill="#000" style="fill: var(--color1, #000)" d="M19.748 1.92l-12.982 11.52 2.514 14.812 10.789 3.748 11.931-7.131-12.252-22.948z"></path>
<path fill="#000" style="fill: var(--color1, #000)" d="M6.125 6.125h19.75v19.75h-19.75v-19.75z"></path>
<path fill="#fff" style="fill: var(--color2, #fff)" d="M8 22.172h7.405v1.234h-7.405v-1.234zM7.909 8.685h3.337c1.966 0 3.155 1.143 3.155 2.835v0.046c0 1.92-1.463 2.88-3.337 2.88h-1.371v2.469h-1.783v-8.229zM11.154 12.8c0.915 0 1.418-0.549 1.418-1.235v-0.046c0-0.823-0.549-1.235-1.463-1.235h-1.371v2.514h1.417zM14.857 15.726l1.052-1.28c0.732 0.595 1.509 1.006 2.468 1.006 0.732 0 1.189-0.274 1.189-0.777v-0.046c0-0.457-0.274-0.685-1.645-1.052-1.646-0.412-2.743-0.869-2.743-2.514v-0.046c0-1.508 1.188-2.469 2.88-2.469 1.189 0 2.24 0.366 3.063 1.052l-0.96 1.371c-0.732-0.503-1.463-0.823-2.148-0.823s-1.052 0.32-1.052 0.732v0.046c0 0.549 0.366 0.732 1.783 1.098 1.645 0.457 2.605 1.051 2.605 2.469v0.046c0 1.646-1.235 2.56-3.017 2.56-1.337-0.052-2.545-0.563-3.481-1.377l0.007 0.006z"></path>
</symbol>
<symbol id="icon-jb_toolbox_app-1" viewBox="0 0 32 32">
<path fill="#000001" style="fill: var(--color3, #000001)" opacity="0.78" d="M16 32.076l14-8.011v-16.008l-14 8.010v16.009z"></path>
<path fill="#fff" style="fill: var(--color2, #fff)" opacity="0.78" d="M19 24.555v2.445l6-3.555v-2.445l-6 3.555z"></path>
<path fill="#000" style="fill: var(--color1, #000)" opacity="0.78" d="M16 0.076l-14 7.981v16.008l14 8.011v-16.009l14-8.010-14-7.981z"></path>
</symbol>
<symbol id="icon-procreate-1" viewBox="0 0 32 32">
<path fill="#1e252b" style="fill: var(--color4, #1e252b)" opacity="0.78" d="M2 12.133c0-3.547 0-5.321 0.69-6.675 0.619-1.197 1.571-2.149 2.733-2.751l0.035-0.017c1.355-0.691 3.128-0.691 6.675-0.691h7.733c3.547 0 5.32 0 6.675 0.69 1.197 0.619 2.149 1.571 2.751 2.733l0.017 0.035c0.691 1.355 0.691 3.128 0.691 6.675v7.733c0 3.547 0 5.32-0.69 6.675-0.619 1.197-1.571 2.149-2.733 2.751l-0.035 0.017c-1.355 0.691-3.128 0.691-6.675 0.691h-7.734c-3.547 0-5.321 0-6.675-0.69-1.197-0.619-2.149-1.571-2.751-2.733l-0.017-0.035c-0.69-1.355-0.69-3.128-0.69-6.675v-7.734z"></path>
<path fill="#000" style="fill: var(--color1, #000)" opacity="0.78" d="M9.867 16.4c-3.9 2.87-4.667 7.066-4.667 10.566 0.178-1.044 0.994-3.493 2.833-4.933 2.733-2.139 7.733-1.435 13.2-5.067s6-8.367 5.3-12c-0.486 3.506-2.146 5.034-4.433 6.4-4.966 2.967-8.066 1.967-12.233 5.034z"></path>
<path fill="#000" style="fill: var(--color1, #000)" opacity="0.78" d="M9.867 16.4c-3.9 2.87-4.667 7.066-4.667 10.566 0.178-1.044 0.994-3.493 2.833-4.933 2.733-2.139 7.733-1.435 13.2-5.067s6-8.367 5.3-12c-0.486 3.506-2.146 5.034-4.433 6.4-4.966 2.967-8.066 1.967-12.233 5.034z"></path>
<path fill="#000" style="fill: var(--color1, #000)" opacity="0.78" d="M5.247 25.532c0.214-3.163 1.241-6.645 4.62-9.132 2.172-1.598 4.055-2.092 6.063-2.619 1.172-0.307 2.386-0.626 3.726-1.181-0.489 0.466-2.812 1.556-4.564 2.285-1.748 0.726-3.591 1.492-5.125 2.515-3.078 2.052-4.33 5.622-4.72 8.132z"></path>
<path fill="#000" style="fill: var(--color1, #000)" opacity="0.78" d="M5.247 25.532c0.214-3.163 1.241-6.645 4.62-9.132 2.172-1.598 4.055-2.092 6.063-2.619 1.172-0.307 2.386-0.626 3.726-1.181-0.489 0.466-2.812 1.556-4.564 2.285-1.748 0.726-3.591 1.492-5.125 2.515-3.078 2.052-4.33 5.622-4.72 8.132z"></path>
<path fill="#000" style="fill: var(--color1, #000)" opacity="0.78" d="M24.218 14.371c-0.377 0.371-0.798 0.7-1.254 0.978l-0.030 0.017c-2.134 1.28-4.401 1.693-6.607 2.095-1.758 0.32-3.477 0.633-5.059 1.372-3.566 1.666-5.766 5.133-6.066 8.133v-0.001c0-0.229 0.003-0.461 0.011-0.695 0.019-0.372 0.056-0.784 0.12-1.223 0.471-2.468 1.752-5.724 4.636-7.646 1.222-0.814 2.638-1.465 4.046-2.063 1.239-0.406 2.355-0.66 3.419-0.901 1.674-0.38 3.218-0.729 4.902-1.602 3.534-1.832 4.46-5.595 4.211-7.809 0.529 2.805 0.315 6.255-2.327 9.346z"></path>
<path fill="#000" style="fill: var(--color1, #000)" opacity="0.78" d="M24.218 14.371c-0.377 0.371-0.798 0.7-1.254 0.978l-0.030 0.017c-2.134 1.28-4.401 1.693-6.607 2.095-1.758 0.32-3.477 0.633-5.059 1.372-2.051 0.959-3.65 2.512-4.696 4.23 0.923-1.296 2.328-2.745 4.063-3.297 1.692-0.538 3.306-0.594 4.983-0.651 0.481-0.017 0.966-0.034 1.461-0.062 1.332-0.485 2.728-1.137 4.156-2.087 1.23-0.817 2.211-1.691 2.984-2.595z"></path>
<path fill="#000" style="fill: var(--color1, #000)" opacity="0.78" d="M24.218 14.371c-0.377 0.371-0.798 0.7-1.254 0.978l-0.030 0.017c-2.134 1.28-4.401 1.693-6.607 2.095-1.758 0.32-3.477 0.633-5.059 1.372-2.051 0.959-3.65 2.512-4.696 4.23 0.923-1.296 2.328-2.745 4.063-3.297 1.692-0.538 3.306-0.594 4.983-0.651 0.481-0.017 0.966-0.034 1.461-0.062 1.332-0.485 2.728-1.137 4.156-2.087 1.23-0.817 2.211-1.691 2.984-2.595z"></path>
<path fill="#000" style="fill: var(--color1, #000)" opacity="0.78" d="M26.544 5.025l-0.011-0.059c-0.486 3.506-2.146 5.034-4.433 6.4-0.684 0.42-1.488 0.833-2.322 1.187l-0.123 0.046c-0.489 0.467-2.812 1.556-4.564 2.285h-0.001c-0.357 0.149-0.717 0.298-1.079 0.451 1.239-0.406 2.355-0.66 3.419-0.901 1.675-0.38 3.218-0.729 4.902-1.602 3.534-1.832 4.46-5.595 4.211-7.809z"></path>
<path fill="#000" style="fill: var(--color1, #000)" opacity="0.78" d="M26.544 5.025l-0.011-0.059c-0.486 3.506-2.146 5.034-4.433 6.4-0.684 0.42-1.488 0.833-2.322 1.187l-0.123 0.046c-0.489 0.467-2.812 1.556-4.564 2.285h-0.001c-0.357 0.149-0.717 0.298-1.079 0.451 1.239-0.406 2.355-0.66 3.419-0.901 1.675-0.38 3.218-0.729 4.902-1.602 3.534-1.832 4.46-5.595 4.211-7.809z"></path>
</symbol>
<symbol id="icon-zeplin" viewBox="0 0 41 32">
<path fill="#fdbd39" style="fill: var(--color5, #fdbd39)" d="M6.277 22.063l-2.131 0.765-0.113 6.23 7.375-2.648c-2.529-0.836-4.377-2.305-5.13-4.347z"></path>
<path fill="#f69833" style="fill: var(--color6, #f69833)" d="M7.393 15.473l-7.393 2.655 4.147 4.7 2.131-0.765c-0.751-2.036-0.288-4.338 1.115-6.59z"></path>
<path fill="#fecf33" style="fill: var(--color7, #fecf33)" d="M19.833 6.484c-9.414 3.38-15.484 10.356-13.556 15.58l34.090-12.241c-1.927-5.224-11.121-6.719-20.535-3.338z"></path>
<path fill="#ee6723" style="fill: var(--color8, #ee6723)" d="M26.812 25.401c9.414-3.38 15.494-10.324 13.556-15.58l-34.091 12.241c1.939 5.255 11.121 6.719 20.535 3.339z"></path>
<path fill="#f69833" style="fill: var(--color6, #f69833)" d="M40.367 9.822l-34.091 12.241c0.668 1.809 3.213 2.701 6.785 2.701 3.481 0 7.939-0.847 12.586-2.515 9.414-3.38 16.036-8.853 14.719-12.427z"></path>
<path fill="#fdbd39" style="fill: var(--color5, #fdbd39)" d="M33.583 7.121c-3.482 0-7.94 0.847-12.587 2.515-9.414 3.38-16.036 8.853-14.719 12.427l34.090-12.241c-0.668-1.809-3.213-2.7-6.785-2.7z"></path>
<path fill="#ee6723" style="fill: var(--color8, #ee6723)" d="M31.7 29.388c-1.004 0-2.483-0.891-4.399-2.647-2.265-2.078-4.861-5.121-7.309-8.569-2.447-3.448-4.458-6.895-5.662-9.707-1.312-3.064-1.499-4.948-0.556-5.6 0.199-0.135 0.445-0.215 0.709-0.215 0.011 0 0.022 0 0.033 0l-0.002-0c0.767 0 2.262 0.561 5.025 3.236l0.060 0.058-0.008 0.083c-0.019 0.192-0.036 0.385-0.052 0.577l-0.031 0.377-0.271-0.269c-2.978-2.948-4.289-3.266-4.716-3.266-0.008-0-0.017-0.001-0.026-0.001-0.097 0-0.187 0.027-0.263 0.075l0.002-0.001c-0.409 0.282-0.435 1.665 0.836 4.636 1.183 2.761 3.165 6.156 5.58 9.56s4.972 6.402 7.197 8.443c2.4 2.201 3.481 2.438 3.835 2.438 0.008 0 0.017 0.001 0.025 0.001 0.1 0 0.193-0.029 0.272-0.078l-0.002 0.001c0.431-0.298 0.432-1.78-0.987-4.977l-0.065-0.146 0.143-0.077c0.143-0.076 0.28-0.153 0.409-0.225l0.171-0.095 0.079 0.177c1.006 2.265 1.946 5.144 0.713 5.996-0.207 0.144-0.458 0.217-0.744 0.217zM31.7 29.039v0z"></path>
<path fill="#ee6723" style="fill: var(--color8, #ee6723)" d="M27.040 25.306l-0.015 0.175c-0.237 2.895-0.864 6.374-2.498 6.515-0.030 0.003-0.065 0.004-0.1 0.004-0 0-0.001 0-0.001 0h0c-1.11 0-2.16-1.564-3.12-4.646-0.91-2.916-1.615-6.833-1.988-11.027s-0.366-8.171 0.016-11.2c0.416-3.3 1.209-5.024 2.356-5.123 0.033-0.003 0.069-0.004 0.103-0.004 0.806 0 2.019 0.896 3.261 5.071l-0.811 0.153c-0.415-1.395-0.867-2.529-1.316-3.309-0.415-0.721-0.819-1.118-1.137-1.118-0.010 0-0.021 0-0.031 0.001-0.497 0.043-1.221 1.228-1.625 4.428-0.375 2.975-0.38 6.892-0.013 11.032s1.062 7.997 1.955 10.862c0.4 1.283 0.838 2.34 1.268 3.057 0.396 0.662 0.78 1.025 1.080 1.025l0.031-0.001c0.476-0.041 1.372-1.275 1.749-5.615l0.834-0.281z"></path>
</symbol>
<symbol id="icon-instagram" viewBox="0 0 32 32">
<path  opacity="0.78" d="M15.999 9.836c-1.635 0-3.203 0.65-4.36 1.806s-1.806 2.724-1.806 4.36c0 1.635 0.65 3.203 1.806 4.36s2.724 1.806 4.36 1.806 3.203-0.649 4.36-1.806c1.156-1.156 1.806-2.724 1.806-4.36s-0.65-3.203-1.806-4.36c-1.156-1.156-2.724-1.806-4.36-1.806zM15.999 20.005c-1.062 0-2.081-0.422-2.832-1.173s-1.173-1.77-1.173-2.832c0-1.062 0.422-2.081 1.173-2.832s1.77-1.173 2.832-1.173 2.081 0.422 2.832 1.173c0.751 0.751 1.173 1.77 1.173 2.832s-0.422 2.081-1.173 2.832c-0.751 0.751-1.77 1.173-2.832 1.173z"></path>
<path  opacity="0.78" d="M22.408 11.047c0.794 0 1.437-0.644 1.437-1.437s-0.644-1.437-1.437-1.437-1.437 0.644-1.437 1.437c0 0.794 0.644 1.437 1.437 1.437z"></path>
<path  opacity="0.78" d="M27.377 8.148c-0.309-0.797-0.78-1.521-1.385-2.125s-1.329-1.076-2.126-1.384c-0.933-0.35-1.918-0.54-2.915-0.56-1.284-0.056-1.691-0.072-4.947-0.072s-3.673 0-4.947 0.072c-0.995 0.019-1.98 0.209-2.912 0.56-0.797 0.308-1.522 0.779-2.126 1.384s-1.076 1.328-1.384 2.126c-0.35 0.933-0.539 1.918-0.559 2.915-0.057 1.283-0.075 1.689-0.075 4.947 0 3.256 0 3.671 0.075 4.947 0.020 0.997 0.208 1.981 0.559 2.916 0.309 0.797 0.781 1.521 1.386 2.125s1.329 1.076 2.126 1.384c0.93 0.364 1.915 0.567 2.913 0.6 1.284 0.056 1.691 0.073 4.947 0.073s3.673 0 4.947-0.073c0.996-0.020 1.982-0.209 2.915-0.559 0.797-0.309 1.521-0.781 2.125-1.385s1.076-1.328 1.385-2.125c0.351-0.933 0.539-1.917 0.559-2.915 0.057-1.283 0.075-1.689 0.075-4.947s0-3.671-0.075-4.947c-0.016-1.010-0.205-2.010-0.561-2.956zM25.753 20.857c-0.009 0.768-0.149 1.53-0.415 2.251-0.2 0.519-0.507 0.989-0.9 1.382s-0.864 0.699-1.383 0.899c-0.713 0.265-1.466 0.405-2.227 0.415-1.267 0.059-1.624 0.073-4.872 0.073-3.251 0-3.583 0-4.873-0.073-0.76-0.009-1.513-0.149-2.225-0.415-0.52-0.199-0.993-0.504-1.388-0.897s-0.703-0.864-0.904-1.384c-0.262-0.713-0.402-1.465-0.415-2.225-0.057-1.267-0.071-1.624-0.071-4.872 0-3.249 0-3.581 0.071-4.873 0.009-0.768 0.149-1.529 0.415-2.249 0.407-1.052 1.24-1.88 2.292-2.283 0.713-0.264 1.465-0.404 2.225-0.415 1.268-0.057 1.624-0.073 4.873-0.073s3.583 0 4.872 0.073c0.761 0.009 1.514 0.149 2.227 0.415 0.519 0.2 0.989 0.507 1.383 0.9s0.7 0.864 0.9 1.383c0.262 0.713 0.402 1.466 0.415 2.225 0.057 1.268 0.072 1.624 0.072 4.873 0 3.248 0 3.597-0.057 4.872h-0.015v-0.001z"></path>
</symbol>
<symbol id="icon-twitter" viewBox="0 0 32 32">
<path  opacity="0.78" d="M26.177 10.663c0.017 0.233 0.017 0.465 0.017 0.697 0 7.1-5.404 15.281-15.28 15.281-3.043 0-5.869-0.881-8.248-2.412 0.432 0.049 0.848 0.067 1.297 0.067 2.417 0.006 4.766-0.802 6.668-2.295-1.121-0.020-2.207-0.39-3.108-1.058s-1.57-1.6-1.915-2.666c0.332 0.049 0.665 0.083 1.015 0.083 0.481 0 0.965-0.067 1.415-0.183-1.216-0.246-2.31-0.905-3.095-1.866s-1.213-2.164-1.212-3.405v-0.067c0.716 0.399 1.547 0.648 2.427 0.681-0.737-0.49-1.342-1.155-1.76-1.935s-0.636-1.652-0.635-2.537c0-0.997 0.265-1.912 0.731-2.709 1.35 1.66 3.033 3.018 4.94 3.986s3.998 1.525 6.134 1.634c-0.083-0.4-0.133-0.815-0.133-1.231-0-0.705 0.138-1.404 0.408-2.056s0.665-1.244 1.164-1.743 1.091-0.894 1.743-1.164c0.652-0.27 1.35-0.408 2.056-0.408 1.547 0 2.943 0.648 3.924 1.696 1.202-0.232 2.355-0.671 3.408-1.297-0.401 1.241-1.24 2.293-2.361 2.96 1.066-0.122 2.109-0.402 3.092-0.832-0.735 1.071-1.645 2.010-2.692 2.777z"></path>
</symbol>
<symbol id="icon-facebook" viewBox="0 0 32 32">
<path  opacity="0.78" d="M17.863 27.996v-10.928h3.687l0.548-4.279h-4.235v-2.725c0-1.235 0.344-2.080 2.116-2.080h2.245v-3.815c-1.093-0.117-2.191-0.174-3.289-0.169-3.259 0-5.496 1.989-5.496 5.641v3.14h-3.663v4.279h3.671v10.936h4.416z"></path>
</symbol>
<symbol id="icon-search" viewBox="0 0 33 32">
<path fill="none" stroke="#fff" style="stroke: var(--color1, #fff)" stroke-linejoin="round" stroke-linecap="round" stroke-miterlimit="4" stroke-width="2.6667" d="M14.667 25.333c5.891 0 10.667-4.776 10.667-10.667s-4.776-10.667-10.667-10.667c-5.891 0-10.667 4.776-10.667 10.667s4.776 10.667 10.667 10.667z"></path>
<path fill="none" stroke="#fff" style="stroke: var(--color1, #fff)" stroke-linejoin="round" stroke-linecap="round" stroke-miterlimit="4" stroke-width="2.6667" d="M28 28l-5.8-5.8"></path>
</symbol>
</defs>
</svg>
